<svg width="36" height="50" viewBox="0 0 36 50" fill="none" xmlns="http://www.w3.org/2000/svg">
<g clip-path="url(#clip0_3_5)">
<path d="M5.99841 37.7702C5.99841 37.6045 5.86393 37.4693 5.69846 37.4778C2.61901 37.6355 0.152319 40.2075 0.0067913 43.4151C-0.00071792 43.5807 0.134315 43.7152 0.3 43.7152H5.69841C5.86409 43.7152 5.99841 43.5809 5.99841 43.4152V37.7702Z" fill="#7264F3"/>
<path d="M30.0016 12.2398C30.0016 12.4055 30.1361 12.5406 30.3015 12.5321C33.381 12.3744 35.8477 9.80245 35.9932 6.59478C36.0007 6.42926 35.8657 6.29474 35.7 6.29474H30.3016C30.1359 6.29474 30.0016 6.42905 30.0016 6.59474V12.2398Z" fill="#7264F3"/>
<path d="M12.035 50H23.9745C27.2111 50 29.8445 47.347 29.9948 44.0252C30.0023 43.8597 29.8673 43.7252 29.7016 43.7252H6.30793C6.14225 43.7252 6.00722 43.8597 6.0147 44.0252C6.16515 47.3559 8.80738 50 12.035 50Z" fill="#7264F3"/>
<path d="M6.01471 5.97482C6.00722 6.14033 6.14225 6.27486 6.30793 6.27486H29.7016C29.8673 6.27486 30.0023 6.14033 29.9948 5.97481C29.8443 2.64409 27.2021 0 23.9745 0H12.035C8.79837 0 6.16504 2.65303 6.01471 5.97482Z" fill="#7264F3"/>
<path d="M12.035 28.1225H29.7016C29.8673 28.1225 30.0023 27.988 29.9948 27.8225C29.8444 24.4917 27.2021 21.8477 23.9745 21.8477H6.29841C6.13273 21.8477 5.9977 21.9822 6.00518 22.1477C6.15563 25.4784 8.79786 28.1225 12.0255 28.1225H12.035Z" fill="#7264F3"/>
<path d="M30.3016 28.1225C30.1359 28.1225 30.0016 28.2568 30.0016 28.4225V43.4251C30.0016 43.5908 30.1361 43.7259 30.3015 43.7175C33.4764 43.5549 36 40.8261 36 37.4801V28.4225C36 28.2568 35.8657 28.1225 35.7 28.1225H30.3016Z" fill="#7264F3"/>
<path d="M0 12.5597V21.6173C0 21.7829 0.134315 21.9173 0.3 21.9173H5.69841C5.86409 21.9173 5.99841 21.7829 5.99841 21.6173V6.60469C5.99841 6.439 5.86392 6.30387 5.69846 6.31238C2.52357 6.47549 0 9.2137 0 12.5597Z" fill="#7264F3"/>
</g>
<defs>
<clipPath id="clip0_3_5">
<rect width="36" height="50" fill="white"/>
</clipPath>
</defs>
</svg>
